<?xml version='1.0' encoding='utf-8'?>
<svg xmlns="http://www.w3.org/2000/svg" width="848.08" height="863.5310000000001"
         viewBox="70.789 88.03 848.08 863.5310000000001" version="1.1">
    <path
            d="M 542.917 380.368 C 542.688 380.570, 537.100 381.039, 530.500 381.410 C 499.377 383.159, 481.500 387.705, 456.591 400.205 C 429.046 414.028, 408.732 434.311, 397.949 458.757 C 378.703 502.388, 385.848 554.074, 415.884 588.500 C 434.380 609.701, 462.255 625.779, 494.628 633.921 C 515.444 639.156, 526.946 640.432, 553 640.395 C 579.434 640.358, 593.486 638.856, 613.733 633.904 C 684.035 616.708, 729.773 579.603, 746.837 525.924 C 751.215 512.150, 752.264 504.688, 751.781 490.749 C 751.311 477.156, 749.581 471.104, 743.732 462.578 C 741.955 459.986, 739.961 456.902, 739.303 455.723 L 738.106 453.579 747.854 444.039 C 757.631 434.472, 764 424.798, 764 419.515 C 764 416.666, 760.846 413.883, 753.500 410.249 C 727.351 397.313, 665.137 386.193, 592.500 381.472 C 572.090 380.145, 543.880 379.517, 542.917 380.368"
            stroke="none" fill="#bb9988" fill-rule="evenodd"/>
    <path
            d="M 372.500 544.645 C 341.241 571.098, 307.032 605.371, 277.321 640 L 257.159 663.500 258.830 665.376 C 262.624 669.638, 280.173 683.602, 289.500 689.782 C 303.057 698.765, 328.687 711.523, 344.558 717.190 C 378.571 729.334, 424.094 738.815, 471 743.526 C 492.747 745.710, 542.381 746.540, 564 745.080 C 653.660 739.027, 719.419 712.239, 752.360 668.349 C 775.808 637.105, 780.998 601.966, 767.009 569.164 C 763.726 561.467, 755.707 547.568, 751.655 542.553 L 749.274 539.606 744.688 549.161 C 721.074 598.363, 666.935 633.085, 597 643.883 C 568.507 648.283, 546.479 648.717, 519.634 645.411 C 461.644 638.267, 415.444 609.613, 393.762 567.342 C 389.465 558.964, 385.108 547.405, 383.549 540.250 C 383.160 538.462, 382.539 537.006, 382.171 537.014 C 381.802 537.022, 377.450 540.456, 372.500 544.645"
            stroke="none" fill="#997755" fill-rule="evenodd"/>
    <path
            d="M 840.247 325.706 C 836.662 326.396, 831.340 332.132, 829.936 336.819 L 828.650 341.111 831.048 346.306 C 841.833 369.667, 816.287 395.235, 774.851 402.549 C 769.708 403.457, 764.416 404.406, 763.090 404.659 L 760.680 405.118 764.448 408.778 C 766.520 410.791, 768.617 413.494, 769.108 414.784 C 772.199 422.913, 767.760 432.970, 755.292 446.087 L 746.345 455.500 750.195 460.953 C 759.882 474.674, 761.508 496.585, 754.770 522.615 L 752.669 530.730 759.510 541.615 C 768.041 555.190, 774.077 567.842, 777.584 579.500 L 780.291 588.500 780.734 602.500 L 781.177 616.500 779.217 626.013 C 774.604 648.398, 762.264 669.996, 744.382 686.982 C 740.226 690.930, 736.980 694.313, 737.167 694.501 C 737.696 695.030, 768.561 674.273, 778.035 667.017 C 807.371 644.550, 838.070 612.763, 858.693 583.500 C 880.677 552.306, 895.988 519.262, 904.397 484.866 C 909.147 465.437, 911 450.837, 911 432.844 C 911 409.815, 907.461 390.441, 900.016 372.718 C 887.704 343.409, 860.292 321.847, 840.247 325.706 M 235.385 416.794 C 207.776 460.615, 199.671 485.187, 199.693 525 C 199.718 571.652, 217.495 619.065, 248 653.846 L 252.500 658.976 260.117 649.730 C 294.476 608.021, 329.457 572.303, 369.217 538.330 L 380.934 528.319 381.327 508.409 L 381.721 488.500 384.748 476.925 C 388.923 460.956, 397.133 443.274, 405.037 433.226 C 406.132 431.834, 406.838 430.505, 406.606 430.273 C 406.374 430.041, 401.980 430.751, 396.842 431.851 C 364.495 438.778, 326.689 437.582, 293.938 428.597 C 278.738 424.428, 269.043 420.629, 253.906 412.911 C 247.529 409.660, 242.129 407.020, 241.906 407.044 C 241.683 407.068, 238.748 411.456, 235.385 416.794"
            stroke="none" fill="#666666" fill-rule="evenodd"/>
    <path
            d="M 254.266 385.697 L 245.121 400.961 253.655 405.613 C 277.414 418.564, 304.600 426.416, 335.183 429.161 C 357.931 431.203, 385.450 428.508, 409.103 421.923 L 416.706 419.806 422.417 414.653 L 428.129 409.500 428.369 392.250 C 428.501 382.762, 428.459 375, 428.276 375 C 428.093 375, 425.243 376.363, 421.944 378.028 C 406.676 385.736, 381.653 391.572, 359.500 392.594 C 329.208 393.990, 298.959 387.996, 273.955 375.642 L 263.411 370.432 254.266 385.697"
            stroke="none" fill="#eeeeee" fill-rule="evenodd"/>
    <path
            d="M 224.059 174.097 C 215.140 182.159, 194.733 190.427, 173.013 194.778 L 164.500 196.483 130.500 196.502 C 111.800 196.513, 95.375 196.906, 94 197.377 C 83.977 200.806, 78.384 212.803, 82.365 222.332 C 84.472 227.373, 94.415 235.527, 104.461 240.451 C 127.886 251.932, 158.497 257.007, 204.222 256.991 C 218.125 256.987, 231.825 256.703, 234.667 256.362 L 239.833 255.741 237.968 252.121 C 235.432 247.197, 232.190 230.556, 231.515 219 C 230.430 200.404, 230.120 192.354, 230.060 181.250 C 230.027 175.063, 229.662 170.018, 229.250 170.041 C 228.838 170.064, 226.501 171.889, 224.059 174.097 M 441.900 773.966 C 441.845 788.560, 441.489 801.620, 441.108 802.989 C 439.801 807.683, 435.148 809.425, 401.355 817.865 C 357.165 828.903, 331.848 835.708, 326.590 837.961 C 315.916 842.537, 316.533 850.246, 328.777 865.300 C 336.165 874.382, 349.472 884.993, 360.500 890.595 L 369.500 895.166 378.056 894.833 L 386.612 894.500 394.056 890.795 C 402.675 886.504, 414.582 877.735, 435 860.640 C 452.676 845.841, 466.643 832.563, 468.793 828.515 L 470.394 825.500 471.362 788.661 L 472.330 751.822 470.915 750.926 C 470.137 750.434, 467.475 749.994, 465 749.949 C 462.525 749.904, 456.337 749.319, 451.250 748.650 L 442 747.432 441.900 773.966 M 576 751.036 C 572.425 751.437, 566.688 751.819, 563.250 751.883 L 557 752 557 788.509 L 557 825.017 549.141 833.759 C 544.818 838.566, 527.048 856.184, 509.653 872.909 C 473.241 907.917, 471.551 910.203, 475.351 919.298 C 478.699 927.310, 492.286 934.841, 512.500 939.889 C 525.809 943.212, 537.376 944.306, 553 943.719 C 569.920 943.083, 582.401 940.503, 591.172 935.828 C 598.586 931.876, 601 928.157, 601 920.686 C 601 916.113, 593.124 849.673, 591.553 841 C 591.305 839.625, 590.822 835.800, 590.482 832.500 C 590.142 829.200, 589.458 823.350, 588.963 819.500 C 588.467 815.650, 588.048 798.438, 588.031 781.250 L 588 750 585.250 750.152 C 583.737 750.236, 579.575 750.634, 576 751.036"
            stroke="none" fill="#ff8833" fill-rule="evenodd"/>
    <path
            d="M 326.659 90.004 C 300.683 94.734, 277.151 105.747, 258.533 121.885 C 249.022 130.130, 242.143 138.451, 233.921 151.661 C 229.753 158.358, 224.831 164.781, 221.617 167.719 C 211.525 176.942, 194.431 184.019, 172.107 188.217 L 160.500 190.399 140.500 190.428 C 129.500 190.444, 115.550 190.242, 109.500 189.978 C 96.410 189.409, 91.414 190.578, 84.459 195.838 C 70.789 206.175, 71.348 224.843, 85.678 236.516 C 100.657 248.717, 122.780 256.255, 159.500 261.668 L 171.500 263.438 210.033 263.469 L 248.567 263.500 256.033 269.118 C 260.140 272.207, 268.040 277.681, 273.589 281.282 C 289.191 291.406, 291.381 295.060, 288.527 306.203 C 285.262 318.946, 274.224 339.266, 235.949 403 C 205.029 454.486, 198.451 469.847, 194.447 499.924 C 188.010 548.276, 202.724 604.874, 231.903 644 C 270.788 696.141, 326.747 726.293, 415.331 742.837 L 435.163 746.540 435.108 773.520 L 435.053 800.500 433.089 802.110 C 432.008 802.995, 419.959 806.510, 406.312 809.920 C 361.428 821.137, 325.827 830.945, 321.668 833.242 C 307.008 841.335, 311.323 859.186, 332.724 878.975 C 347.055 892.228, 362.981 901.275, 374.323 902.608 C 385.761 903.952, 396.482 899.326, 416.071 884.592 C 438.477 867.740, 472.745 837.165, 475.328 831.721 L 476.894 828.422 477.697 789.961 L 478.500 751.500 481.500 751.743 C 483.150 751.876, 499.350 752.250, 517.500 752.572 L 550.500 753.158 550.794 787.829 L 551.089 822.500 511.570 861.500 C 469.461 903.056, 468.044 904.766, 468.044 914 C 468.044 926.050, 478.895 935.890, 500.038 943.013 C 515.369 948.178, 539.396 951.561, 553.500 950.542 C 582.357 948.456, 600.541 941.701, 605.976 931.048 C 608.697 925.713, 608.573 920.837, 605.056 895.071 C 594.798 819.908, 595.019 822.365, 595.009 783.364 L 595 749.227 599.750 748.568 C 602.362 748.206, 611.481 746.588, 620.012 744.974 C 697.433 730.326, 766.442 693.064, 823.042 635.348 C 851.219 606.616, 867.379 585.325, 883.933 555.122 C 904.879 516.907, 916.299 477.784, 917.682 439.500 C 918.869 406.644, 912.958 380.050, 899.281 356.720 C 892.568 345.269, 877.998 330.712, 868.112 325.581 C 848.252 315.272, 832.786 317.397, 825.184 331.479 C 822.614 336.239, 822.925 347.575, 825.750 352.118 C 826.987 354.108, 828 356.700, 828 357.879 C 828 362.126, 823.481 369.625, 817.053 376.045 C 806.449 386.637, 790.246 393.759, 768.149 397.541 C 754.410 399.892, 745.529 399.115, 725 393.765 C 705.542 388.695, 680.516 384.130, 652.500 380.543 C 616.081 375.879, 589.695 374.032, 559.259 374.014 C 523.916 373.994, 497.614 377.084, 478.234 383.536 C 469.343 386.496, 450.552 395.305, 441.836 400.599 C 438.562 402.589, 435.572 403.904, 435.191 403.523 C 433.896 402.225, 435.054 382.824, 437.040 372.528 C 440.614 354.011, 444.532 343.167, 465.890 292.696 C 488.013 240.413, 492.031 208.344, 480.947 172.500 C 470.325 138.146, 438.651 107.108, 402 95.136 C 386.768 90.161, 378.299 88.888, 357.500 88.451 L 337.500 88.030 326.659 90.004 M 341 95.016 C 321.506 96.930, 305.640 101.548, 288.625 110.259 C 272.157 118.689, 256.420 131.620, 246.995 144.465 C 241.767 151.591, 234.938 163.089, 235.444 163.913 C 235.756 164.420, 236.943 186.646, 238.440 220.010 C 239.062 233.871, 241.382 242.847, 246.214 250.082 C 250.989 257.233, 257.165 262.556, 273.624 273.707 C 288.442 283.747, 294.607 290.195, 295.578 296.670 C 297.106 306.861, 291.129 322.242, 274.073 352.014 C 270.188 358.795, 267.120 364.411, 267.255 364.496 C 279.598 372.184, 292.848 377.944, 306 381.337 C 337.338 389.422, 374.012 388.687, 402.443 379.405 C 410.647 376.727, 427.558 368.820, 429.658 366.680 C 430.295 366.031, 431.800 361.900, 433.002 357.500 C 436.141 346.013, 443.948 325.486, 453.728 303.010 C 477.174 249.120, 482.460 227.026, 479.034 197.229 C 472.655 141.752, 428.109 101.063, 367.144 95.026 C 355.851 93.907, 352.307 93.906, 341 95.016 M 323.385 160.564 C 313.194 164.309, 305.620 175.822, 305.666 187.500 C 305.723 202.198, 316.928 213.025, 332 212.946 C 339.790 212.905, 344.481 211.372, 349.872 207.102 C 357.604 200.978, 361.891 186.662, 359.091 176.317 C 357.779 171.468, 351.532 165.407, 344.162 161.832 C 338.372 159.023, 329.116 158.459, 323.385 160.564 M 224.059 174.097 C 215.140 182.159, 194.733 190.427, 173.013 194.778 L 164.500 196.483 130.500 196.502 C 111.800 196.513, 95.375 196.906, 94 197.377 C 83.977 200.806, 78.384 212.803, 82.365 222.332 C 84.472 227.373, 94.415 235.527, 104.461 240.451 C 127.886 251.932, 158.497 257.007, 204.222 256.991 C 218.125 256.987, 231.825 256.703, 234.667 256.362 L 239.833 255.741 237.968 252.121 C 235.432 247.197, 232.190 230.556, 231.515 219 C 230.430 200.404, 230.120 192.354, 230.060 181.250 C 230.027 175.063, 229.662 170.018, 229.250 170.041 C 228.838 170.064, 226.501 171.889, 224.059 174.097 M 840.247 325.706 C 836.662 326.396, 831.340 332.132, 829.936 336.819 L 828.650 341.111 831.048 346.306 C 841.833 369.667, 816.287 395.235, 774.851 402.549 C 769.708 403.457, 764.416 404.406, 763.090 404.659 L 760.680 405.118 764.448 408.778 C 766.520 410.791, 768.617 413.494, 769.108 414.784 C 772.199 422.913, 767.760 432.970, 755.292 446.087 L 746.345 455.500 750.195 460.953 C 759.882 474.674, 761.508 496.585, 754.770 522.615 L 752.669 530.730 759.510 541.615 C 768.041 555.190, 774.077 567.842, 777.584 579.500 L 780.291 588.500 780.734 602.500 L 781.177 616.500 779.217 626.013 C 774.604 648.398, 762.264 669.996, 744.382 686.982 C 740.226 690.930, 736.980 694.313, 737.167 694.501 C 737.696 695.030, 768.561 674.273, 778.035 667.017 C 807.371 644.550, 838.070 612.763, 858.693 583.500 C 880.677 552.306, 895.988 519.262, 904.397 484.866 C 909.147 465.437, 911 450.837, 911 432.844 C 911 409.815, 907.461 390.441, 900.016 372.718 C 887.704 343.409, 860.292 321.847, 840.247 325.706 M 254.266 385.697 L 245.121 400.961 253.655 405.613 C 277.414 418.564, 304.600 426.416, 335.183 429.161 C 357.931 431.203, 385.450 428.508, 409.103 421.923 L 416.706 419.806 422.417 414.653 L 428.129 409.500 428.369 392.250 C 428.501 382.762, 428.459 375, 428.276 375 C 428.093 375, 425.243 376.363, 421.944 378.028 C 406.676 385.736, 381.653 391.572, 359.500 392.594 C 329.208 393.990, 298.959 387.996, 273.955 375.642 L 263.411 370.432 254.266 385.697 M 542.917 380.368 C 542.688 380.570, 537.100 381.039, 530.500 381.410 C 499.377 383.159, 481.500 387.705, 456.591 400.205 C 429.046 414.028, 408.732 434.311, 397.949 458.757 C 378.703 502.388, 385.848 554.074, 415.884 588.500 C 434.380 609.701, 462.255 625.779, 494.628 633.921 C 515.444 639.156, 526.946 640.432, 553 640.395 C 579.434 640.358, 593.486 638.856, 613.733 633.904 C 684.035 616.708, 729.773 579.603, 746.837 525.924 C 751.215 512.150, 752.264 504.688, 751.781 490.749 C 751.311 477.156, 749.581 471.104, 743.732 462.578 C 741.955 459.986, 739.961 456.902, 739.303 455.723 L 738.106 453.579 747.854 444.039 C 757.631 434.472, 764 424.798, 764 419.515 C 764 416.666, 760.846 413.883, 753.500 410.249 C 727.351 397.313, 665.137 386.193, 592.500 381.472 C 572.090 380.145, 543.880 379.517, 542.917 380.368 M 235.385 416.794 C 207.776 460.615, 199.671 485.187, 199.693 525 C 199.718 571.652, 217.495 619.065, 248 653.846 L 252.500 658.976 260.117 649.730 C 294.476 608.021, 329.457 572.303, 369.217 538.330 L 380.934 528.319 381.327 508.409 L 381.721 488.500 384.748 476.925 C 388.923 460.956, 397.133 443.274, 405.037 433.226 C 406.132 431.834, 406.838 430.505, 406.606 430.273 C 406.374 430.041, 401.980 430.751, 396.842 431.851 C 364.495 438.778, 326.689 437.582, 293.938 428.597 C 278.738 424.428, 269.043 420.629, 253.906 412.911 C 247.529 409.660, 242.129 407.020, 241.906 407.044 C 241.683 407.068, 238.748 411.456, 235.385 416.794 M 372.500 544.645 C 341.241 571.098, 307.032 605.371, 277.321 640 L 257.159 663.500 258.830 665.376 C 262.624 669.638, 280.173 683.602, 289.500 689.782 C 303.057 698.765, 328.687 711.523, 344.558 717.190 C 378.571 729.334, 424.094 738.815, 471 743.526 C 492.747 745.710, 542.381 746.540, 564 745.080 C 653.660 739.027, 719.419 712.239, 752.360 668.349 C 775.808 637.105, 780.998 601.966, 767.009 569.164 C 763.726 561.467, 755.707 547.568, 751.655 542.553 L 749.274 539.606 744.688 549.161 C 721.074 598.363, 666.935 633.085, 597 643.883 C 568.507 648.283, 546.479 648.717, 519.634 645.411 C 461.644 638.267, 415.444 609.613, 393.762 567.342 C 389.465 558.964, 385.108 547.405, 383.549 540.250 C 383.160 538.462, 382.539 537.006, 382.171 537.014 C 381.802 537.022, 377.450 540.456, 372.500 544.645 M 441.900 773.966 C 441.845 788.560, 441.489 801.620, 441.108 802.989 C 439.801 807.683, 435.148 809.425, 401.355 817.865 C 357.165 828.903, 331.848 835.708, 326.590 837.961 C 315.916 842.537, 316.533 850.246, 328.777 865.300 C 336.165 874.382, 349.472 884.993, 360.500 890.595 L 369.500 895.166 378.056 894.833 L 386.612 894.500 394.056 890.795 C 402.675 886.504, 414.582 877.735, 435 860.640 C 452.676 845.841, 466.643 832.563, 468.793 828.515 L 470.394 825.500 471.362 788.661 L 472.330 751.822 470.915 750.926 C 470.137 750.434, 467.475 749.994, 465 749.949 C 462.525 749.904, 456.337 749.319, 451.250 748.650 L 442 747.432 441.900 773.966 M 576 751.036 C 572.425 751.437, 566.688 751.819, 563.250 751.883 L 557 752 557 788.509 L 557 825.017 549.141 833.759 C 544.818 838.566, 527.048 856.184, 509.653 872.909 C 473.241 907.917, 471.551 910.203, 475.351 919.298 C 478.699 927.310, 492.286 934.841, 512.500 939.889 C 525.809 943.212, 537.376 944.306, 553 943.719 C 569.920 943.083, 582.401 940.503, 591.172 935.828 C 598.586 931.876, 601 928.157, 601 920.686 C 601 916.113, 593.124 849.673, 591.553 841 C 591.305 839.625, 590.822 835.800, 590.482 832.500 C 590.142 829.200, 589.458 823.350, 588.963 819.500 C 588.467 815.650, 588.048 798.438, 588.031 781.250 L 588 750 585.250 750.152 C 583.737 750.236, 579.575 750.634, 576 751.036"
            stroke="none" fill="#222222" fill-rule="evenodd"/>
    <path
            d="M 341 95.016 C 321.506 96.930, 305.640 101.548, 288.625 110.259 C 272.157 118.689, 256.420 131.620, 246.995 144.465 C 241.767 151.591, 234.938 163.089, 235.444 163.913 C 235.756 164.420, 236.943 186.646, 238.440 220.010 C 239.062 233.871, 241.382 242.847, 246.214 250.082 C 250.989 257.233, 257.165 262.556, 273.624 273.707 C 288.442 283.747, 294.607 290.195, 295.578 296.670 C 297.106 306.861, 291.129 322.242, 274.073 352.014 C 270.188 358.795, 267.120 364.411, 267.255 364.496 C 279.598 372.184, 292.848 377.944, 306 381.337 C 337.338 389.422, 374.012 388.687, 402.443 379.405 C 410.647 376.727, 427.558 368.820, 429.658 366.680 C 430.295 366.031, 431.800 361.900, 433.002 357.500 C 436.141 346.013, 443.948 325.486, 453.728 303.010 C 477.174 249.120, 482.460 227.026, 479.034 197.229 C 472.655 141.752, 428.109 101.063, 367.144 95.026 C 355.851 93.907, 352.307 93.906, 341 95.016 M 323.385 160.564 C 313.194 164.309, 305.620 175.822, 305.666 187.500 C 305.723 202.198, 316.928 213.025, 332 212.946 C 339.790 212.905, 344.481 211.372, 349.872 207.102 C 357.604 200.978, 361.891 186.662, 359.091 176.317 C 357.779 171.468, 351.532 165.407, 344.162 161.832 C 338.372 159.023, 329.116 158.459, 323.385 160.564"
            stroke="none" fill="#559900" fill-rule="evenodd"/>
</svg>